<?xml version="1.0" encoding="UTF-8"?>
<svg id="Capa_2" data-name="Capa 2" xmlns="http://www.w3.org/2000/svg" viewBox="0 0 77.67 36.17">
  <defs>
    <style>
      .cls-1 {
        fill: #64b54f;
        stroke-width: 0px;
      }
    </style>
  </defs>
  <g id="logo">
    <g>
      <g>
        <g>
          <path class="cls-1" d="M16.99,16.04c-.28,0-.5.22-.5.5s.22.5.5.5.5-.22.5-.5-.22-.5-.5-.5Z"/>
          <path class="cls-1" d="M16.15,18.46c-1.34.6-2.11-.23-2.14-.27-.12-.13-.32-.14-.46-.03-.13.12-.15.32-.03.46.26.3.87.7,1.7.7.36,0,.76-.08,1.2-.27.16-.07.24-.26.16-.43-.07-.16-.26-.24-.43-.16Z"/>
          <path class="cls-1" d="M13.85,16.27c0-.28-.22-.5-.5-.5s-.5.22-.5.5.22.5.5.5.5-.22.5-.5Z"/>
          <path class="cls-1" d="M15.02,17.94c.23,0,.41-.18.41-.41s-.18-.42-.41-.42-.42.18-.42.42.18.41.42.41Z"/>
          <path class="cls-1" d="M20.46,15c-.17-.04-.35.06-.39.24-.04.17.06.35.24.39,1.23.3,2.56,1.57,2.69,2.55.06.46-.14.81-.62,1.07-.35.19-.7.2-1.05.02-.75-.37-1.29-1.42-1.37-2-.03-.18-.19-.3-.37-.27-.18.03-.3.19-.27.37.1.71.73,1.99,1.73,2.48.26.13.53.19.79.19.29,0,.58-.08.86-.23.71-.39,1.04-1,.95-1.72-.18-1.37-1.83-2.76-3.18-3.1Z"/>
          <path class="cls-1" d="M44.64,16.61c0-.67-1.33-1.67-4-2.99-.7-.34-1.29-.67-1.77-1.01,2-2.87,2.99-4.71,2.99-5.52,0-.98-.48-1.48-1.43-1.48-1.24,0-3.57.77-7,2.32-.87.39-1.71.74-2.53,1.05.11-.73.25-1.52.42-2.36.37-1.74.55-3.25.55-4.51,0-1.4-.17-2.11-.51-2.11-1.46,0-4.16,1.81-8.09,5.44-.93.87-1.83,1.59-2.7,2.15-.17-.59-.31-1.32-.42-2.19-.54-3.6-1.15-5.4-1.86-5.4-.62,0-2.28,2.82-4.97,8.47-.65-.06-1.73-.42-3.25-1.1-1.32-.59-2.4-.89-3.25-.89-.93,0-1.39.56-1.39,1.69,0,.25.04.58.13.97.56,2.59.79,4.48.67,5.69-.28.25-.74.63-1.39,1.14-3.23,2.47-4.85,4.03-4.85,4.68,0,.73,2.09,1.91,6.28,3.54.42.17.74.31.97.42-1.01,3.68-1.52,5.82-1.52,6.41,0,.73.25,1.1.76,1.1,1.69,0,4.27-1.39,7.76-4.17.17.48.34,1.1.51,1.85.65,3.26,1.4,4.89,2.28,4.89.65,0,1.92-.89,3.82-2.68,1.9-1.78,2.93-3.01,3.1-3.69,2.02,5.23,3.46,7.84,4.3,7.84.65,0,1.69-2.07,3.12-6.2.59-1.77,1.01-2.78,1.26-3.04,2.11,2.02,3.78,3.04,5.02,3.04s1.9-1.69,1.9-5.06c0-1.32-.17-2.54-.51-3.67,3.74-2.56,5.61-4.1,5.61-4.64ZM11.18,17.02c-.01.22-.02.49,0,.78-.34.34-1.15,1-1.79.97-.26-.01-.48-.15-.66-.4-.3-.42-.33-.82-.09-1.24.49-.85,1.93-1.52,2.87-1.66-.18.52-.28,1.04-.31,1.55ZM14.85,23.46c-.08.32-1.19,1.85-2.22,2.17-.34.11-.61.05-.83-.16-.79-.79.45-2.54,1.21-3.4.52.52,1.13.97,1.85,1.36,0,.01,0,.02,0,.03ZM18.55,24.76c0,.42-.13,1.63-.71,2.16-.23.21-.5.3-.84.28-.28-.02-.47-.13-.61-.33-.47-.68-.18-2.23-.02-2.78.67.24,1.4.42,2.19.57-.01.03-.02.06-.02.1ZM30.93,26.75c-.18.29-.45.45-.84.5-.29.04-.53-.03-.72-.21-.56-.53-.63-1.88-.61-2.54.55-.12,1.07-.27,1.56-.44.18-.07.37-.13.54-.2.31.98.49,2.23.08,2.9ZM31.01,23.11s-.04,0-.06.02c-.03.01-.06.03-.09.05-.24.1-.48.2-.74.29-.46.16-.96.3-1.5.42-1.54.34-3.39.52-5.53.52-4.67,0-7.95-.98-9.75-2.92-1.4-1.5-1.59-3.23-1.51-4.41.21-3.15,3.33-6.82,11.41-6.82,7.4,0,11.47,2.57,11.47,7.25,0,2.63-1.22,4.49-3.7,5.62ZM35.48,24.84c-.04.35-.23.62-.56.8-.26.14-.53.14-.82,0-.84-.41-1.55-1.78-1.69-2.57.59-.38,1.1-.82,1.51-1.31.88.89,1.66,2.21,1.56,3.08ZM36.15,13.74c-.1,1.2-.34,1.86-.92,2.4-.12-.71-.34-1.36-.65-1.96.17-.45.2-1.05.23-1.68.05-1.16.13-1.92.64-1.92.11,0,.19.04.27.13.48.52.5,2.26.43,3.02Z"/>
        </g>
        <g>
          <path class="cls-1" d="M13.35,16.81c-.3,0-.54-.24-.54-.54s.24-.54.54-.54.54.24.54.54-.24.54-.54.54ZM13.35,15.82c-.25,0-.46.21-.46.46s.21.45.46.45.46-.2.46-.45-.2-.46-.46-.46Z"/>
          <path class="cls-1" d="M16.99,17.09c-.3,0-.54-.24-.54-.54s.24-.54.54-.54.54.24.54.54-.24.54-.54.54ZM16.99,16.09c-.25,0-.46.21-.46.46s.21.46.46.46.46-.21.46-.46-.21-.46-.46-.46Z"/>
          <path class="cls-1" d="M15.02,17.98c-.25,0-.46-.2-.46-.46s.21-.46.46-.46.46.21.46.46-.2.46-.46.46ZM15.02,17.16c-.21,0-.37.17-.37.37s.17.37.37.37.37-.17.37-.37-.17-.37-.37-.37Z"/>
          <path class="cls-1" d="M15.22,19.37c-.81,0-1.44-.39-1.73-.72-.13-.15-.12-.38.03-.52.15-.13.38-.12.52.03,0,.01.76.86,2.09.26.19-.08.4,0,.49.19.04.09.04.19,0,.28-.04.09-.1.16-.19.2-.4.18-.81.27-1.21.27ZM13.77,18.13c-.07,0-.13.02-.19.07-.11.1-.13.28-.03.4.28.32.88.69,1.67.69.39,0,.78-.09,1.18-.27.07-.03.12-.09.15-.16.03-.07.02-.15,0-.21-.06-.14-.23-.21-.37-.14-1.39.62-2.19-.27-2.19-.28-.05-.06-.13-.09-.21-.09Z"/>
          <path class="cls-1" d="M29.94,27.95c-.4,0-.77-.14-1.05-.41-.72-.69-.83-2.06-.83-2.85-1.45.27-3.12.4-4.98.4-1.39,0-2.68-.09-3.84-.26-.01.4-.11,1.86-.93,2.61-.33.31-.73.46-1.2.46-.05,0-.11,0-.16,0-.48-.04-.87-.25-1.13-.62-.74-1.07-.18-3.15-.11-3.38,0,0,0,0,0,0-.09-.04-.17-.08-.26-.11-.29.73-1.44,1.95-2.24,2.35-.31.16-.62.24-.92.24-.38,0-.72-.14-1-.42-1.3-1.31.55-3.64,1.2-4.37-.67-.84-1.11-1.82-1.3-2.91-.46.37-1.12.78-1.79.78-.03,0-.06,0-.09,0-.47-.03-.87-.26-1.18-.69-.46-.64-.51-1.32-.13-1.98.69-1.21,2.61-1.99,3.72-2.03.71-1.48,1.99-2.74,3.71-3.62,2.04-1.05,4.66-1.58,7.79-1.58,5.26,0,9,1.29,10.84,3.72.03-.26.04-.54.05-.81h0c.06-1.15.12-2.57,1.33-2.57.3,0,.57.12.78.35.81.88.63,3.28.61,3.55h0c-.14,1.59-.53,2.41-1.47,3.13.01.21.02.39.02.57,0,1.44-.35,2.69-1.03,3.73.49.49.95,1.1,1.27,1.67.41.74.6,1.44.53,2.02-.07.58-.39,1.04-.92,1.33-.45.25-.96.25-1.45,0-.94-.46-1.72-1.76-2-2.78-.1.05-.2.1-.29.15.28.88.64,2.48.01,3.49-.29.47-.74.75-1.35.82-.07,0-.15.01-.23.01ZM28.15,24.58v.05c0,.62.06,2.14.8,2.84.27.26.61.39.99.39.07,0,.15,0,.22-.01.58-.07,1.01-.33,1.28-.78.61-1,.24-2.6-.03-3.46v-.04s.02-.02.02-.02c.12-.06.24-.12.37-.19l.05-.03v.05c.27,1.01,1.05,2.32,1.98,2.78.47.23.95.23,1.38,0,.51-.28.81-.71.88-1.26.14-1.16-.81-2.66-1.8-3.64l-.03-.02.02-.03c.69-1.03,1.04-2.28,1.04-3.71,0-.18,0-.37-.02-.59v-.02s.02-.01.02-.01c.93-.7,1.32-1.51,1.46-3.08h0c.02-.27.2-2.63-.58-3.49-.19-.21-.44-.32-.71-.32-1.13,0-1.19,1.38-1.25,2.48h0c-.01.32-.03.65-.06.94v.11s-.08-.09-.08-.09c-1.8-2.47-5.54-3.78-10.84-3.78-5.71,0-9.87,1.89-11.43,5.18v.02s-.04,0-.04,0c-1.08.03-2.99.8-3.67,1.99-.36.63-.31,1.28.13,1.89.29.41.67.63,1.12.65.03,0,.06,0,.09,0,.67,0,1.35-.44,1.79-.81l.06-.05v.07c.19,1.12.63,2.12,1.32,2.97l.02.03-.02.03c-.61.68-2.49,3.01-1.23,4.28.26.26.57.39.94.39.28,0,.58-.08.88-.23.8-.41,1.96-1.64,2.21-2.35l.02-.04.04.02c.11.05.22.1.33.15l.04.02-.02.05s0,.01,0,.02c-.07.23-.62,2.27.1,3.31.24.35.61.55,1.06.58.05,0,.1,0,.15,0,.44,0,.82-.15,1.14-.44.83-.77.9-2.3.9-2.6v-.05s.05,0,.05,0c1.17.18,2.47.27,3.88.27,1.87,0,3.56-.14,5.01-.41h.05Z"/>
          <path class="cls-1" d="M9.42,18.82s-.03,0-.05,0c-.28-.01-.5-.15-.7-.42-.31-.43-.34-.85-.09-1.29.51-.9,2.01-1.55,2.9-1.68h.07s-.02.06-.02.06c-.17.51-.28,1.03-.31,1.54-.02.26-.02.52,0,.78v.02s-.01.01-.01.01c-.1.1-1.01.98-1.78.98ZM11.43,15.53c-.88.15-2.29.77-2.77,1.63-.23.4-.2.79.09,1.19.18.25.38.37.63.38h0s.03,0,.05,0c.71,0,1.55-.8,1.7-.95-.01-.25,0-.51,0-.77.03-.49.13-1,.3-1.49Z"/>
          <path class="cls-1" d="M12.32,25.73c-.21,0-.39-.08-.54-.23-.36-.36-.36-.94.01-1.72.36-.76.95-1.46,1.19-1.73l.03-.03.03.03c.51.52,1.13.97,1.84,1.35h.02v.04s0,.02,0,.03v.02c-.08.33-1.21,1.88-2.25,2.2-.12.04-.23.06-.33.06ZM13.01,22.13c-.97,1.11-1.86,2.62-1.18,3.3.21.21.46.26.79.15,1.01-.31,2.1-1.81,2.19-2.13,0,0,0,0,0,0-.69-.37-1.3-.82-1.8-1.32Z"/>
          <path class="cls-1" d="M17.12,27.25s-.07,0-.11,0c-.29-.02-.49-.13-.64-.34-.46-.66-.22-2.13-.02-2.82v-.04s.06.02.06.02c.65.23,1.39.42,2.18.57h.05s-.02.06-.02.06c-.01.03-.02.05-.02.08,0,.42-.13,1.65-.72,2.19-.21.2-.46.29-.76.29ZM16.41,24.15c-.16.58-.42,2.06.02,2.7.13.19.32.29.58.31.32.03.59-.06.81-.26.57-.53.69-1.72.69-2.13,0-.02,0-.04,0-.07-.76-.15-1.47-.33-2.11-.55Z"/>
          <path class="cls-1" d="M29.94,27.3c-.24,0-.44-.08-.6-.23-.65-.62-.63-2.25-.62-2.57v-.03s.03,0,.03,0c.53-.12,1.05-.26,1.55-.44.16-.06.35-.13.54-.2l.04-.02v.04c.16.47.61,2.08.08,2.93-.18.3-.47.47-.88.52-.05,0-.1.01-.15.01ZM28.8,24.53c-.03.86.12,2.02.6,2.48.18.17.4.24.68.2.38-.05.64-.2.81-.48.49-.79.09-2.3-.07-2.82-.17.07-.35.13-.5.19h0c-.49.17-1.01.32-1.53.43Z"/>
          <path class="cls-1" d="M34.52,25.78c-.14,0-.29-.04-.45-.11-.85-.42-1.57-1.8-1.71-2.6v-.03s.02-.02.02-.02c.59-.38,1.09-.81,1.5-1.3l.03-.04.03.03c.83.84,1.68,2.18,1.57,3.12h0c-.04.37-.23.64-.59.84-.13.07-.27.11-.41.11ZM32.45,23.08c.15.79.84,2.11,1.66,2.51.28.14.54.14.78,0,.32-.18.5-.43.54-.77h0c.1-.86-.68-2.16-1.52-3.02-.4.47-.9.9-1.47,1.27Z"/>
          <path class="cls-1" d="M23.09,24.44c-4.68,0-7.97-.99-9.78-2.93-1.41-1.51-1.61-3.25-1.52-4.45.22-3.16,3.34-6.86,11.45-6.86,7.42,0,11.51,2.59,11.51,7.29,0,2.67-1.22,4.52-3.72,5.65h-.02s-.03.01-.05.02c-.03,0-.05.02-.08.04-.24.11-.49.2-.75.29-.46.16-.97.3-1.5.42h0c-1.53.34-3.4.52-5.54.52ZM23.23,10.29c-8.05,0-11.16,3.65-11.37,6.78-.08,1.18.11,2.9,1.5,4.38,1.8,1.93,5.07,2.9,9.72,2.9,2.13,0,3.99-.17,5.52-.51h0c.53-.12,1.03-.26,1.49-.42.26-.09.51-.19.74-.29.02-.02.05-.04.09-.05.02,0,.04-.01.06-.01h.01c2.46-1.12,3.66-2.94,3.66-5.58,0-4.65-4.06-7.2-11.43-7.2Z"/>
          <path class="cls-1" d="M35.21,16.22v-.08c-.13-.69-.35-1.35-.66-1.95v-.02s0-.02,0-.02c.17-.45.2-1.06.23-1.66.05-1.18.13-1.96.68-1.96.13,0,.21.04.3.14.49.53.51,2.29.44,3.05-.11,1.23-.36,1.89-.93,2.43l-.06.05ZM34.63,14.17c.3.58.51,1.21.63,1.87.51-.51.74-1.15.84-2.32.07-.75.06-2.48-.42-2.99-.08-.08-.14-.11-.24-.12-.48,0-.55.74-.6,1.88-.03.6-.06,1.21-.22,1.67Z"/>
          <path class="cls-1" d="M21.83,20.09c-.27,0-.55-.07-.81-.2-1.01-.5-1.64-1.8-1.75-2.51-.02-.1,0-.19.07-.27.06-.08.14-.13.24-.14.09-.01.19,0,.27.07.08.06.13.15.15.24.09.57.62,1.6,1.35,1.96.34.17.67.16,1.02-.02.46-.25.65-.59.6-1.03-.13-.97-1.44-2.22-2.66-2.52-.19-.05-.32-.24-.27-.44.05-.19.25-.32.44-.27,1.36.34,3.03,1.75,3.21,3.13.1.74-.25,1.36-.97,1.76-.28.16-.58.24-.88.24ZM19.63,17.04s-.03,0-.04,0c-.07.01-.14.05-.18.11-.04.06-.06.13-.05.21.1.7.72,1.96,1.7,2.45.53.27,1.1.25,1.62-.04.69-.38,1.02-.98.93-1.68-.18-1.35-1.81-2.73-3.14-3.06-.15-.04-.3.06-.34.21-.04.15.06.3.21.34,1.24.31,2.59,1.59,2.72,2.59.06.48-.15.84-.64,1.11-.37.2-.72.21-1.09.02-.76-.38-1.31-1.44-1.4-2.03-.01-.08-.05-.14-.11-.19-.05-.04-.1-.05-.16-.05Z"/>
        </g>
      </g>
      <g>
        <path class="cls-1" d="M44.01,28.03l-.18,1.56c-.03.21-.14.41-.34.6-.2.19-.44.28-.72.28-.23,0-.41-.07-.54-.21-.13-.14-.2-.31-.2-.51l.17-1.41c.1-.98.27-1.87.5-2.68.08-.26.16-.66.24-1.19l.27-1.83c.02-.16.14-.36.37-.59.22-.23.5-.35.82-.35l1.63.14c.85.08,1.54.38,2.07.92.53.54.79,1.17.79,1.89s-.26,1.35-.78,1.8c-.52.45-1.22.71-2.11.76.6.25,1.13.62,1.59,1.11.46.49.69.87.69,1.15,0,.24-.11.46-.32.68-.21.22-.46.33-.74.33-.24,0-.44-.08-.59-.25-.63-.74-1.12-1.25-1.45-1.54-.33-.28-.72-.51-1.16-.67ZM44.85,23.57c0,.07,0,.15-.03.25-.03.24-.05.44-.06.63,0,.18-.14.7-.39,1.56.99-.05,1.68-.16,2.08-.32.4-.16.6-.4.6-.7,0-.25-.13-.53-.38-.83-.26-.3-.75-.48-1.47-.56l-.35-.04Z"/>
        <path class="cls-1" d="M53.96,25.45l-.04-.14c-.06-.19-.19-.36-.4-.52s-.45-.23-.72-.23-.58.08-.94.24c-.36.16-.61.24-.77.24-.21,0-.37-.07-.5-.21-.13-.14-.19-.31-.19-.51,0-.47.27-.83.82-1.07.55-.24,1.18-.36,1.91-.36s1.34.18,1.85.54.76,1.05.76,2.07c0,.57-.1,1.47-.3,2.69-.05.32-.09.7-.13,1.15-.04.45-.08.74-.12.89-.04.14-.15.29-.31.42-.17.14-.36.2-.57.2-.43,0-.7-.25-.79-.74-.63.34-1.18.52-1.66.52-.66,0-1.25-.2-1.77-.59-.52-.4-.78-.86-.78-1.38,0-.77.32-1.52.96-2.26.64-.74,1.46-1.11,2.46-1.11.42,0,.83.05,1.23.15ZM53.79,28.08l.08-.56c-.07-.05-.14-.17-.2-.36-.25-.15-.62-.22-1.13-.22-.37,0-.7.13-.99.4-.28.26-.43.56-.43.87,0,.19.09.36.28.49.18.13.4.2.66.2.55,0,1.13-.27,1.74-.82Z"/>
        <path class="cls-1" d="M60.44,23.34c.94-.08,1.65-.13,2.12-.17.47-.04.73-.05.77-.05.99,0,1.43.33,1.32.98-.03.2-.07.43-.12.68-.05.25-.12.53-.18.84-.07.31-.14.59-.19.83-.05.25-.09.47-.12.68-.02.13-.05.29-.08.49-.03.19-.07.42-.1.68-.04.26-.07.48-.09.68-.02.19-.05.36-.07.49-.02.13-.07.25-.13.36-.06.11-.14.21-.24.29s-.2.15-.32.19c-.12.05-.25.07-.39.07s-.26-.02-.37-.07c-.11-.05-.2-.11-.27-.19-.07-.08-.12-.18-.15-.29-.03-.11-.03-.23-.01-.36.02-.13.05-.29.07-.49.02-.19.05-.42.09-.68.04-.26.07-.48.09-.68s.05-.36.07-.49l.48-2.22c-.05,0-.1-.01-.14-.01h-.1c-.1,0-.35.01-.73.04-.38.03-.9.07-1.57.12-.06.34-.12.61-.16.82s-.07.34-.08.4c-.02.13-.04.3-.06.5-.02.2-.05.44-.09.71-.05.27-.08.51-.1.71-.02.2-.05.37-.07.5-.14.84-.29,1.49-.47,1.97-.09.24-.22.43-.39.55-.17.12-.38.18-.63.18-.13,0-.25-.02-.36-.06-.11-.04-.2-.1-.27-.18-.08-.08-.13-.17-.16-.27-.03-.11-.04-.22-.02-.34,0-.03.01-.06.02-.08s.01-.06.02-.08c.09-.29.17-.58.24-.87.07-.3.13-.6.18-.92.01-.09.04-.27.09-.54.05-.27.1-.63.16-1.08.05-.38.1-.72.14-1.02.05-.29.09-.54.14-.75-.37.03-.64.04-.83.04-.28,0-.5-.08-.66-.24-.16-.16-.21-.38-.17-.65.07-.43.34-.7.81-.83.1-.03.26-.06.45-.07.2-.02.45-.03.75-.04.01-.04.04-.12.08-.25.04-.12.09-.3.15-.51.6-2.1,1.79-3.15,3.57-3.15.19,0,.35,0,.49.02.13.01.24.04.31.07.25.1.35.32.29.68-.1.62-.54.94-1.29.94-.54,0-.94.2-1.2.61-.06.11-.14.28-.22.51-.08.23-.17.51-.27.85l-.04.18ZM64.38,22.13c-.15,0-.28-.03-.4-.08s-.22-.12-.31-.22c-.09-.09-.15-.2-.19-.32-.04-.12-.05-.26-.02-.4.02-.14.07-.27.15-.39s.18-.23.29-.32c.11-.09.24-.16.38-.22s.28-.08.42-.08.29.03.41.08.23.13.31.22c.08.09.14.2.17.32.03.12.04.25.02.39-.02.14-.07.28-.14.4-.07.12-.17.23-.28.32-.11.09-.24.17-.38.22s-.28.08-.43.08Z"/>
        <path class="cls-1" d="M70.05,24.95h-.55c-.32,0-.59,0-.81.01-.03.08-.05.15-.07.22-.02.07-.04.15-.06.22-.35,1.18-.53,2.06-.53,2.65,0,.53.11.79.32.79s.44-.12.68-.36c.23-.24.45-.36.65-.36.19,0,.37.08.54.23.17.15.26.36.26.61,0,.44-.26.82-.79,1.14-.53.32-1.06.47-1.59.47-1.27,0-1.91-.76-1.91-2.29,0-.83.23-1.92.68-3.28-.77-.04-1.25-.13-1.43-.27-.18-.14-.27-.38-.27-.72,0-.28.09-.5.28-.67.18-.17.42-.26.71-.26l1.07.09.16-1.36c.03-.24.14-.44.32-.61.19-.17.41-.25.67-.25.54,0,.81.38.81,1.13,0,.13-.05.48-.14,1.05.13-.01.24-.03.32-.04.26-.03.6-.01,1.03.05.43.07.64.34.64.82,0,.29-.1.53-.3.7-.2.17-.43.26-.71.26Z"/>
        <path class="cls-1" d="M75.9,25.45l-.04-.14c-.06-.19-.19-.36-.4-.52s-.45-.23-.72-.23-.58.08-.94.24c-.36.16-.61.24-.77.24-.2,0-.37-.07-.5-.21-.13-.14-.19-.31-.19-.51,0-.47.27-.83.82-1.07.55-.24,1.18-.36,1.91-.36s1.34.18,1.85.54.76,1.05.76,2.07c0,.57-.1,1.47-.3,2.69-.05.32-.09.7-.13,1.15-.04.45-.08.74-.12.89-.04.14-.15.29-.31.42-.17.14-.36.2-.57.2-.43,0-.69-.25-.79-.74-.63.34-1.18.52-1.66.52-.66,0-1.25-.2-1.77-.59-.52-.4-.78-.86-.78-1.38,0-.77.32-1.52.96-2.26.64-.74,1.46-1.11,2.46-1.11.42,0,.83.05,1.23.15ZM75.72,28.08l.08-.56c-.07-.05-.14-.17-.2-.36-.25-.15-.62-.22-1.13-.22-.37,0-.7.13-.99.4-.29.26-.43.56-.43.87,0,.19.09.36.28.49.18.13.4.2.66.2.55,0,1.13-.27,1.74-.82Z"/>
      </g>
      <g>
        <path class="cls-1" d="M46.25,35.63c-.23-.12-.41-.3-.54-.53-.13-.23-.2-.51-.2-.82,0-.26.06-.51.18-.74.12-.24.28-.42.49-.57.21-.14.45-.22.72-.22.25,0,.46.05.64.15s.31.22.4.36c.09.14.14.26.14.38,0,.05-.02.1-.05.15-.03.05-.08.09-.14.13l-1.65.95c.06.13.16.23.3.3s.31.1.49.1c.24,0,.44-.09.61-.26.07-.07.13-.1.2-.1.08,0,.15.03.21.08.06.05.08.12.08.2,0,.07-.02.13-.07.18-.11.13-.27.23-.46.32-.19.09-.38.13-.57.13-.29,0-.55-.06-.78-.19ZM47.26,33.37c-.09-.04-.2-.06-.32-.06-.23,0-.43.08-.59.24s-.25.36-.27.59c0,.06-.01.14-.01.22l1.4-.79c-.05-.09-.12-.15-.21-.19Z"/>
        <path class="cls-1" d="M50.71,35.67c-.17-.1-.31-.23-.4-.36s-.14-.25-.14-.34.03-.15.09-.21c.06-.06.12-.08.2-.08.07,0,.13.02.18.06.05.04.08.09.1.15.05.13.12.23.22.3.1.07.23.11.38.11.16,0,.28-.04.37-.12.09-.08.14-.17.14-.26s-.04-.17-.11-.22c-.08-.06-.23-.12-.46-.19-.34-.1-.58-.22-.73-.37-.15-.14-.22-.33-.22-.56,0-.24.1-.44.29-.59.19-.15.46-.23.81-.23.32,0,.57.07.75.21s.27.33.27.56c0,.13-.03.22-.08.29-.05.07-.13.1-.23.1-.09,0-.16-.03-.21-.08-.05-.05-.08-.11-.08-.17,0-.02,0-.05.02-.08.01-.03.02-.05.02-.07,0-.07-.04-.13-.11-.18-.07-.05-.18-.07-.33-.07-.18,0-.32.03-.41.08-.09.05-.13.13-.13.22s.05.17.14.23c.09.06.25.13.49.2.34.11.58.22.71.35.13.13.2.31.2.53,0,.16-.05.31-.14.45s-.22.26-.39.35c-.17.09-.36.14-.57.14-.24,0-.44-.05-.62-.16Z"/>
        <path class="cls-1" d="M55.1,35.74c-.06-.06-.09-.13-.09-.2v-2.19h-.49c-.08,0-.15-.03-.21-.09-.06-.06-.09-.13-.09-.21,0-.09.03-.16.09-.22.06-.06.13-.08.22-.08h.47v-.66c0-.08.03-.15.09-.21.06-.06.13-.09.21-.09s.16.03.21.09.08.13.08.21v.66h.52c.08,0,.15.03.21.09s.09.13.09.22c0,.08-.03.15-.09.21-.06.06-.13.09-.21.09h-.52v2.19c0,.08-.03.15-.09.2-.06.06-.13.09-.21.09s-.15-.03-.21-.09Z"/>
        <path class="cls-1" d="M58.83,35.7c-.13-.1-.23-.27-.3-.53s-.1-.62-.1-1.09c0-.16,0-.34.02-.53.01-.19.03-.35.05-.49.02-.1.05-.18.09-.23.05-.05.11-.08.2-.08s.15.02.21.07c.06.05.09.12.09.22v.17c-.05.35-.07.68-.07,1,0,.42.04.7.11.85.07.15.17.22.3.22.15,0,.3-.04.46-.12.16-.08.27-.16.33-.23.02-.02.04-.08.04-.15v-1.75c.01-.08.04-.15.1-.2.06-.05.13-.08.2-.08.08,0,.15.03.21.08.06.05.09.12.09.2v2.5c0,.08-.03.15-.09.21s-.13.09-.21.09c-.08,0-.15-.03-.22-.08-.06-.05-.1-.12-.1-.19v-.07c-.16.11-.3.2-.43.26-.13.06-.28.1-.44.1-.22,0-.4-.05-.53-.14Z"/>
        <path class="cls-1" d="M63.76,35.65c-.17-.11-.3-.27-.39-.48-.1-.21-.14-.46-.14-.75,0-.35.06-.65.17-.9.11-.25.26-.44.46-.57.2-.13.42-.19.68-.19.2,0,.42.05.66.14l.03-.95c0-.08.04-.15.1-.21.06-.06.13-.09.21-.09.08,0,.15.03.21.09.06.06.09.13.08.22l-.09,3.58c0,.08-.03.15-.09.2s-.13.08-.21.08-.14-.02-.2-.07c-.06-.05-.08-.1-.08-.18v-.11c-.11.1-.23.18-.37.25-.14.07-.29.1-.45.1-.21,0-.4-.05-.56-.16ZM64.76,35.17c.12-.06.22-.13.29-.22.07-.09.11-.17.11-.24l.02-1.21c-.07-.05-.17-.09-.28-.13s-.23-.06-.33-.06c-.25,0-.44.09-.57.28-.13.19-.19.46-.19.81,0,.3.05.51.15.65.1.14.24.21.41.21.14,0,.27-.03.39-.09Z"/>
        <path class="cls-1" d="M68.44,35.73c-.06-.06-.09-.13-.09-.21l.03-2.45c0-.08.03-.15.09-.21.06-.06.13-.09.21-.09s.16.03.22.09.09.13.09.21l-.03,2.45c0,.08-.03.15-.09.21s-.13.09-.21.09-.15-.03-.21-.09ZM68.47,32.4c-.06-.06-.09-.13-.08-.21v-.23c.01-.08.04-.15.1-.2.06-.06.12-.09.2-.09s.15.03.21.09c.06.06.09.13.08.2v.23c-.01.08-.04.15-.1.21s-.12.08-.21.08-.15-.03-.21-.09Z"/>
        <path class="cls-1" d="M71.99,35.63c-.19-.13-.35-.3-.46-.52-.11-.22-.17-.46-.17-.72,0-.29.07-.56.2-.81.13-.25.31-.45.53-.6.22-.15.46-.22.71-.22.23,0,.45.07.64.2.19.13.35.31.46.52s.17.45.17.7c0,.3-.07.57-.2.82-.13.25-.31.45-.53.6-.22.15-.46.22-.72.22-.23,0-.45-.06-.64-.19ZM73.04,35.12c.13-.1.24-.23.31-.39.08-.16.12-.34.12-.52,0-.16-.03-.3-.09-.44-.06-.14-.15-.25-.25-.33s-.22-.13-.35-.13c-.14,0-.28.05-.4.15-.13.1-.22.23-.3.4-.07.17-.11.34-.11.53s.03.34.1.47c.06.13.15.23.25.3s.21.1.32.1c.14,0,.28-.05.41-.15Z"/>
      </g>
    </g>
  </g>
</svg>